<?xml version="1.0" encoding="UTF-8" standalone="no"?>
<svg
   xmlns:dc="http://purl.org/dc/elements/1.1/"
   xmlns:cc="http://creativecommons.org/ns#"
   xmlns:rdf="http://www.w3.org/1999/02/22-rdf-syntax-ns#"
   xmlns:svg="http://www.w3.org/2000/svg"
   xmlns="http://www.w3.org/2000/svg"
   id="svg8"
   version="1.1"
   viewBox="0 0 39.687499 12.7"
   height="12.7mm"
   width="39.6875mm">
  <defs
     id="defs2" />
  <metadata
     id="metadata5">
    <rdf:RDF>
      <cc:Work
         rdf:about="">
        <dc:format>image/svg+xml</dc:format>
        <dc:type
           rdf:resource="http://purl.org/dc/dcmitype/StillImage" />
        <dc:title></dc:title>
      </cc:Work>
    </rdf:RDF>
  </metadata>
  <g
     transform="translate(-53.32201,-88.119644)"
     id="layer1">
    <g
       transform="matrix(1.0224173,0,0,1.0224173,1.1371184,-2.1701451)"
       id="g4580">
      <path
         style="fill:#338855;fill-opacity:1;stroke-width:0.11043283"
         d="m 66.924381,97.556462 c -0.411961,-0.675667 -0.188062,-1.076726 0.601106,-1.076726 0.174882,0 0.346838,-0.139955 0.55101,-0.448485 0.319105,-0.482191 0.749754,-0.571658 0.980049,-0.203586 0.263074,0.42045 -0.430669,1.45012 -1.263169,1.874835 -0.55462,0.282952 -0.613469,0.273066 -0.868996,-0.146038 z m 3.204601,0.194276 c -0.07819,-0.09423 -0.112447,-0.318601 -0.08008,-0.524562 0.043,-0.273682 -0.02291,-0.485665 -0.275102,-0.884771 -0.352673,-0.558124 -0.348867,-0.766942 0.01755,-0.963047 0.237964,-0.127356 0.257267,-0.113781 0.956961,0.673004 0.128507,0.144498 0.364557,0.35201 0.524556,0.461146 0.20037,0.136656 0.290907,0.296856 0.290907,0.514737 0,0.623842 -1.069792,1.163284 -1.434788,0.723493 z m 2.176733,-0.05703 C 71.937023,97.403671 71.881985,96.05981 72.184026,94.72235 l 0.178522,-0.790526 -0.399389,-0.387885 c -0.68288,-0.6632 -0.481875,-1.192407 0.431574,-1.136236 0.470019,0.02888 0.539568,-0.0021 0.861666,-0.378194 1.016802,-1.188769 1.951655,-1.285738 1.951655,-0.202435 0,0.260343 -0.09396,0.398037 -0.438245,0.642247 -0.638173,0.452667 -0.638877,0.559111 -0.0074,1.111552 1.161826,1.016341 0.407195,1.747007 -0.802085,0.776612 -0.389491,-0.312548 -0.477934,-0.197626 -0.579772,0.753336 -0.133073,1.242618 0.156598,1.728653 1.115999,1.872523 0.811038,0.121622 1.065455,0.0062 0.980579,-0.446707 -0.06489,-0.345905 -0.04472,-0.384935 0.235096,-0.455165 0.588544,-0.147724 0.985558,0.973232 0.554022,1.564251 -0.254887,0.349091 -3.527386,0.388717 -3.960581,0.04799 z m 6.684664,0.09845 c -0.07592,-0.078 -0.138041,-0.277783 -0.138041,-0.443902 0,-0.458237 -0.182002,-0.841343 -0.438348,-0.922712 -0.736324,-0.233696 -0.618206,-1.03824 0.131773,-0.897535 1.181216,0.221592 2.38583,1.538395 1.974839,2.158764 -0.142529,0.215137 -1.34299,0.297801 -1.530223,0.105385 z m 2.211203,-0.176488 c -0.341036,-0.52192 -0.275935,-2.452177 0.109776,-3.254973 0.397702,-0.827758 0.381415,-1.1412 -0.107961,-2.078073 -0.663199,-1.269624 -0.149577,-1.61815 1.052746,-0.714347 l 0.679672,0.510915 0.58104,-0.215302 c 1.340466,-0.496712 2.822149,-0.399014 3.343403,0.22046 0.540826,0.642731 0.172243,1.218459 -0.641468,1.001975 -0.834949,-0.222136 -1.988888,0.155585 -2.985845,0.977362 -0.558902,0.460704 -0.854525,1.318592 -0.88126,2.55747 -0.02754,1.273396 -0.628367,1.792973 -1.150103,0.994513 z m 3.526188,0.06464 c -0.612713,-0.303299 -1.029415,-0.8546 -1.096622,-1.45086 -0.145827,-1.293764 2.307124,-2.454859 3.295843,-1.560068 0.199589,0.180609 0.207812,0.173179 0.20798,-0.187966 4.14e-4,-1.311933 1.65399,-1.792809 2.242117,-0.652103 0.633842,1.229362 -0.752123,2.499932 -1.871628,1.715797 -0.22526,-0.157774 -0.231942,-0.145411 -0.286128,0.529556 -0.126791,1.579562 -1.176987,2.256339 -2.491562,1.605644 z m 1.12647,-1.287577 c 0.348569,-0.773005 -0.06989,-1.30215 -0.591057,-0.747396 -0.278256,0.296198 -0.256088,0.678677 0.05754,0.992294 0.252584,0.252585 0.323962,0.219813 0.533526,-0.244898 z m 2.75994,-1.745147 c 0.0863,-0.2249 0.01512,-0.335372 -0.262789,-0.408068 -0.268128,-0.07008 -0.372085,0.06608 -0.277605,0.363807 0.08336,0.262666 0.445219,0.292304 0.540394,0.04429 z m 10.595204,2.979985 c -0.165749,-0.252975 -0.172223,-0.363097 -0.05354,-0.911069 0.837654,-3.868703 0.791451,-4.346486 -0.438907,-4.539251 -1.474784,-0.231056 -2.305738,0.04809 -2.305738,0.774608 0,0.934355 -0.649533,0.660436 -0.935043,-0.394339 -0.372481,-1.376016 -0.15909,-1.495038 2.812397,-1.568731 3.266877,-0.08098 3.468127,0.188142 2.536607,3.392688 -0.18539,0.637746 -0.363,1.507401 -0.39469,1.932569 -0.0316,0.425167 -0.0794,0.88137 -0.10604,1.013782 -0.12235,0.608376 -0.7944,0.789036 -1.115005,0.299743 z m 6.330026,0.204933 c -0.0279,-0.04563 -0.085,-0.380999 -0.12679,-0.745423 -0.16297,-1.418746 -0.18608,-1.45535 -0.97226,-1.539535 -1.16492,-0.124756 -2.03022,0.450972 -2.35455,1.566624 -0.30655,1.054498 -0.91338,0.630337 -0.68451,-0.478471 0.14472,-0.701214 0.71794,-1.309117 1.946,-2.063768 0.50466,-0.310113 0.94269,-0.604513 0.9734,-0.65422 0.23362,-0.377988 -0.81592,-1.216485 -1.54693,-1.235887 -1.00737,-0.02672 -0.0203,-1.61333 1.00367,-1.61333 1.27957,0 3.20813,5.232254 2.4504,6.648071 -0.10478,0.195787 -0.58957,0.277434 -0.68843,0.115939 z m 1.25123,-0.276077 c -0.41198,-0.675676 -0.18807,-1.076725 0.6011,-1.076725 0.17488,0 0.34683,-0.139965 0.551,-0.448485 0.31911,-0.482202 0.74976,-0.571668 0.98004,-0.203597 0.26308,0.420451 -0.43066,1.450131 -1.26316,1.874836 -0.55462,0.282952 -0.61347,0.273066 -0.86898,-0.146029 z m 3.20459,0.194267 c -0.0782,-0.09424 -0.11245,-0.318601 -0.08,-0.524562 0.043,-0.273682 -0.0229,-0.485665 -0.2751,-0.884771 -0.35268,-0.558125 -0.34887,-0.766942 0.0176,-0.963048 0.23796,-0.127356 0.25727,-0.11378 0.95696,0.673005 0.12851,0.144508 0.36456,0.35201 0.52456,0.461145 0.20037,0.136667 0.2909,0.296856 0.2909,0.514738 0,0.623842 -1.06979,1.163283 -1.43478,0.723493 z M 68.683659,95.02753 c -0.07443,-0.139071 -0.09974,-0.436677 -0.06111,-0.718499 0.07726,-0.563694 -0.355053,-2.083416 -0.741517,-2.606652 l -0.237619,-0.321714 0.260709,-0.211305 c 0.203102,-0.164608 0.437231,-0.211294 1.059604,-0.211294 1.215578,0 1.355438,0.253828 0.948669,1.721717 -0.118669,0.428219 -0.249578,1.122948 -0.290909,1.543841 -0.101573,1.034294 -0.590303,1.453244 -0.937818,0.803906 z m 8.686499,-0.0111 c -0.08914,-0.136656 -0.212423,-0.472089 -0.273958,-0.745412 -0.06154,-0.273323 -0.213372,-0.790475 -0.337417,-1.149226 -0.462039,-1.336277 -0.19432,-2.163768 0.700052,-2.163768 0.699159,0 0.885168,0.183414 0.792452,0.78138 -0.04167,0.268729 -0.101593,1.134294 -0.133178,1.923464 -0.03657,0.913813 -0.104168,1.464599 -0.186152,1.516763 -0.224019,0.142514 -0.394733,0.0929 -0.561799,-0.163201 z m 31.179742,0.0111 c -0.0744,-0.139071 -0.0998,-0.436677 -0.0611,-0.718499 0.0773,-0.563694 -0.35505,-2.083416 -0.74152,-2.606652 l -0.23761,-0.321714 0.2607,-0.211305 c 0.2031,-0.164608 0.43723,-0.211294 1.05961,-0.211294 1.21559,0 1.35544,0.253828 0.94866,1.721717 -0.11867,0.428219 -0.24957,1.122948 -0.2909,1.543841 -0.10153,1.034294 -0.59031,1.453244 -0.93782,0.803906 z m -30.065672,0.05334 c -0.44435,-0.444344 1.018618,-1.518387 1.886378,-1.384885 0.628486,0.0967 0.355207,1.093527 -0.358724,1.30852 -0.485585,0.146224 -1.41151,0.19252 -1.527654,0.07636 z"
         id="path4556" />
    </g>
    <path
       transform="scale(0.26458333)"
       id="path4540"
       d=""
       style="fill:#338855;fill-opacity:0;stroke-width:0.71428573" />
    <g
       style="fill:#338855;fill-opacity:1;stroke:none"
       transform="matrix(0.01169219,0,0,0.01169219,49.658061,83.086957)"
       id="layer101">
      <path
         style="fill:#338855;fill-opacity:1"
         d="m 565,1478 c -39,-31 -73,-118 -45,-118 6,0 10,8 10,18 0,26 50,71 88,78 36,7 72,-11 97,-50 21,-32 115,-247 115,-263 0,-25 -43,-13 -109,31 -124,82 -246,105 -331,61 -80,-42 -92,-140 -24,-196 17,-13 17,-13 1,11 -51,74 11,160 117,160 58,0 236,-105 221,-131 -3,-5 -29,0 -58,11 -62,24 -98,25 -136,5 -37,-19 -42,-33 -47,-142 -4,-83 -2,-95 16,-113 11,-11 27,-20 35,-20 9,0 6,8 -11,25 -15,15 -23,32 -20,41 3,9 6,19 6,23 0,4 23,-3 50,-17 41,-20 55,-23 73,-14 21,10 21,11 -5,11 -33,1 -95,52 -84,69 12,19 58,13 101,-13 22,-14 52,-25 68,-25 32,0 31,3 11,-68 -44,-150 23,-309 159,-376 73,-37 181,-37 254,0 134,66 202,228 159,376 -20,71 -21,68 12,68 15,0 45,11 67,25 43,26 89,32 101,13 11,-17 -51,-68 -84,-69 -26,0 -27,-1 -5,-11 19,-9 32,-6 73,15 l 50,26 v -34 c 0,-24 -7,-39 -22,-49 -18,-13 -19,-16 -6,-16 10,0 26,10 38,22 18,20 20,31 15,116 -6,99 -15,124 -52,141 -35,16 -72,13 -130,-9 -29,-11 -55,-16 -58,-11 -16,27 162,131 223,131 101,0 161,-81 116,-158 l -16,-27 25,28 c 15,15 29,44 33,64 13,67 -33,115 -127,135 -78,16 -163,-7 -263,-73 -72,-47 -116,-62 -116,-37 0,6 21,63 48,127 31,77 59,128 84,154 34,36 41,39 75,34 51,-8 93,-55 94,-105 l 1,-37 10,36 c 20,75 -43,149 -127,149 -77,0 -133,-55 -184,-179 -32,-75 -57,-117 -99,-163 -28,-31 -85,-38 -114,-15 -28,22 -82,110 -110,181 -51,125 -106,176 -189,176 -32,0 -55,-7 -74,-22 z m 66,-448 c 24,-11 58,-20 76,-20 24,0 31,-4 27,-15 -10,-25 -41,-27 -85,-5 -30,16 -55,21 -90,18 -39,-2 -49,0 -49,13 0,9 3,19 7,22 13,13 72,7 114,-13 z m 837,-7 c 3,-20 1,-21 -27,-13 -34,9 -68,2 -120,-25 -26,-13 -39,-15 -57,-6 -34,15 -30,31 9,31 17,0 50,9 72,20 23,11 57,18 80,17 33,-2 41,-6 43,-24 z M 904,948 c -3,-13 -13,-31 -22,-40 -20,-23 -62,-24 -62,-1 0,25 40,63 67,63 21,0 23,-4 17,-22 z m 235,-4 c 28,-35 27,-54 -2,-54 -26,0 -51,23 -61,58 -6,19 -4,22 18,22 15,0 33,-10 45,-26 z"
         id="path4562" />
    </g>
    <path
       style="fill:#338855;fill-opacity:1;stroke-width:0.11043283"
       d="m 66.790746,77.310795 c -0.411961,-0.675667 -0.188062,-1.076726 0.601106,-1.076726 0.174882,0 0.346838,-0.139955 0.55101,-0.448485 0.319105,-0.482191 0.749754,-0.571658 0.980049,-0.203586 0.263074,0.42045 -0.430669,1.45012 -1.263169,1.874835 -0.55462,0.282952 -0.613469,0.273066 -0.868996,-0.146038 z m 3.204601,0.194276 c -0.07819,-0.09423 -0.112447,-0.318601 -0.08008,-0.524562 0.043,-0.273682 -0.02291,-0.485665 -0.275102,-0.884771 -0.352673,-0.558124 -0.348867,-0.766942 0.01755,-0.963047 0.237964,-0.127356 0.257267,-0.113781 0.956961,0.673004 0.128507,0.144498 0.364557,0.35201 0.524556,0.461146 0.20037,0.136656 0.290907,0.296856 0.290907,0.514737 0,0.623842 -1.069792,1.163284 -1.434788,0.723493 z m 2.176733,-0.05703 c -0.368692,-0.290037 -0.42373,-1.633898 -0.121689,-2.971358 l 0.178522,-0.790526 -0.399389,-0.387885 c -0.68288,-0.6632 -0.481875,-1.192407 0.431574,-1.136236 0.470019,0.02888 0.539568,-0.0021 0.861666,-0.378194 1.016802,-1.188769 1.951655,-1.285738 1.951655,-0.202435 0,0.260343 -0.09396,0.398037 -0.438245,0.642247 -0.638173,0.452667 -0.638877,0.559111 -0.0074,1.111552 1.161826,1.016341 0.407195,1.747007 -0.802085,0.776612 -0.389491,-0.312548 -0.477934,-0.197626 -0.579772,0.753336 -0.133073,1.242618 0.156598,1.728653 1.115999,1.872523 0.811038,0.121622 1.065455,0.0062 0.980579,-0.446707 -0.06489,-0.345905 -0.04472,-0.384935 0.235096,-0.455165 0.588544,-0.147724 0.985558,0.973232 0.554022,1.564251 -0.254887,0.349091 -3.527386,0.388717 -3.960581,0.04799 z m 6.684664,0.09845 c -0.07592,-0.078 -0.138041,-0.277783 -0.138041,-0.443902 0,-0.458237 -0.182002,-0.841343 -0.438348,-0.922712 -0.736324,-0.233696 -0.618206,-1.03824 0.131773,-0.897535 1.181216,0.221592 2.38583,1.538395 1.974839,2.158764 -0.142529,0.215137 -1.34299,0.297801 -1.530223,0.105385 z m 2.211203,-0.176488 c -0.341036,-0.52192 -0.275935,-2.452177 0.109776,-3.254973 0.397702,-0.827758 0.381415,-1.1412 -0.107961,-2.078073 -0.663199,-1.269624 -0.149577,-1.61815 1.052746,-0.714347 l 0.679672,0.510915 0.58104,-0.215302 c 1.340466,-0.496712 2.822149,-0.399014 3.343403,0.22046 0.540826,0.642731 0.172243,1.218459 -0.641468,1.001975 -0.834949,-0.222136 -1.988888,0.155585 -2.985845,0.977362 -0.558902,0.460704 -0.854525,1.318592 -0.88126,2.55747 -0.02754,1.273396 -0.628367,1.792973 -1.150103,0.994513 z m 3.526188,0.06464 c -0.612713,-0.303299 -1.029415,-0.8546 -1.096622,-1.45086 -0.145827,-1.293764 2.307124,-2.454859 3.295843,-1.560068 0.199589,0.180609 0.207812,0.173179 0.20798,-0.187966 4.14e-4,-1.311933 1.65399,-1.792809 2.242117,-0.652103 0.633842,1.229362 -0.752123,2.499932 -1.871628,1.715797 -0.22526,-0.157774 -0.231942,-0.145411 -0.286128,0.529556 -0.126791,1.579562 -1.176987,2.256339 -2.491562,1.605644 z m 1.12647,-1.287577 c 0.348569,-0.773005 -0.06989,-1.30215 -0.591057,-0.747396 -0.278256,0.296198 -0.256088,0.678677 0.05754,0.992294 0.252584,0.252585 0.323962,0.219813 0.533526,-0.244898 z m 2.75994,-1.745147 c 0.0863,-0.2249 0.01512,-0.335372 -0.262789,-0.408068 -0.268128,-0.07008 -0.372085,0.06608 -0.277605,0.363807 0.08336,0.262666 0.445219,0.292304 0.540394,0.04429 z m 10.595204,2.979985 C 98.91,77.128929 98.903526,77.018807 99.022209,76.470835 c 0.837654,-3.868703 0.791451,-4.346486 -0.438907,-4.539251 -1.474784,-0.231056 -2.305738,0.04809 -2.305738,0.774608 0,0.934355 -0.649533,0.660436 -0.935043,-0.394339 -0.372481,-1.376016 -0.15909,-1.495038 2.812397,-1.568731 3.266882,-0.08098 3.468132,0.188142 2.536612,3.392688 -0.18539,0.637746 -0.363,1.507401 -0.39469,1.932569 -0.0316,0.425167 -0.0794,0.88137 -0.10604,1.013782 -0.12235,0.608376 -0.794405,0.789036 -1.11501,0.299743 z m 6.330031,0.204933 c -0.0279,-0.04563 -0.085,-0.380999 -0.12679,-0.745423 -0.16297,-1.418746 -0.18608,-1.45535 -0.97226,-1.539535 -1.16492,-0.124756 -2.03022,0.450972 -2.35455,1.566624 -0.30655,1.054498 -0.91338,0.630337 -0.68451,-0.478471 0.14472,-0.701214 0.71794,-1.309117 1.946,-2.063768 0.50466,-0.310113 0.94269,-0.604513 0.9734,-0.65422 0.23362,-0.377988 -0.81592,-1.216485 -1.54693,-1.235887 -1.00737,-0.02672 -0.0203,-1.61333 1.00367,-1.61333 1.27957,0 3.20813,5.232254 2.4504,6.648071 -0.10478,0.195787 -0.58957,0.277434 -0.68843,0.115939 z m 1.25123,-0.276077 c -0.41198,-0.675676 -0.18807,-1.076725 0.6011,-1.076725 0.17488,0 0.34683,-0.139965 0.551,-0.448485 0.31911,-0.482202 0.74976,-0.571668 0.98004,-0.203597 0.26308,0.420451 -0.43066,1.450131 -1.26316,1.874836 -0.55462,0.282952 -0.61347,0.273066 -0.86898,-0.146029 z m 3.20459,0.194267 c -0.0782,-0.09424 -0.11245,-0.318601 -0.08,-0.524562 0.043,-0.273682 -0.0229,-0.485665 -0.2751,-0.884771 -0.35268,-0.558125 -0.34887,-0.766942 0.0176,-0.963048 0.23796,-0.127356 0.25727,-0.11378 0.95696,0.673005 0.12851,0.144508 0.36456,0.35201 0.52456,0.461145 0.20037,0.136667 0.2909,0.296856 0.2909,0.514738 0,0.623842 -1.06979,1.163283 -1.43478,0.723493 z M 68.550024,74.781863 c -0.07443,-0.139071 -0.09974,-0.436677 -0.06111,-0.718499 0.07726,-0.563694 -0.355053,-2.083416 -0.741517,-2.606652 l -0.237619,-0.321714 0.260709,-0.211305 c 0.203102,-0.164608 0.437231,-0.211294 1.059604,-0.211294 1.215578,0 1.355438,0.253828 0.948669,1.721717 -0.118669,0.428219 -0.249578,1.122948 -0.290909,1.543841 -0.101573,1.034294 -0.590303,1.453244 -0.937818,0.803906 z m 8.686499,-0.0111 c -0.08914,-0.136656 -0.212423,-0.472089 -0.273958,-0.745412 -0.06154,-0.273323 -0.213372,-0.790475 -0.337417,-1.149226 -0.462039,-1.336277 -0.19432,-2.163768 0.700052,-2.163768 0.699159,0 0.885168,0.183414 0.792452,0.78138 -0.04167,0.268729 -0.101593,1.134294 -0.133178,1.923464 -0.03657,0.913813 -0.104168,1.464599 -0.186152,1.516763 -0.224019,0.142514 -0.394733,0.0929 -0.561799,-0.163201 z m 31.179747,0.0111 c -0.0744,-0.139071 -0.0998,-0.436677 -0.0611,-0.718499 0.0773,-0.563694 -0.35505,-2.083416 -0.74152,-2.606652 l -0.23761,-0.321714 0.2607,-0.211305 c 0.2031,-0.164608 0.43723,-0.211294 1.05961,-0.211294 1.21559,0 1.35544,0.253828 0.94866,1.721717 -0.11867,0.428219 -0.24957,1.122948 -0.2909,1.543841 -0.10153,1.034294 -0.59031,1.453244 -0.93782,0.803906 z m -30.065677,0.05334 c -0.44435,-0.444344 1.018618,-1.518387 1.886378,-1.384885 0.628486,0.0967 0.355207,1.093527 -0.358724,1.30852 -0.485585,0.146224 -1.41151,0.19252 -1.527654,0.07636 z"
       id="path4577" />
  </g>
</svg>
